<svg xmlns="http://www.w3.org/2000/svg" xmlns:xlink="http://www.w3.org/1999/xlink" id="body_2" preserveAspectRatio="xMinYMin meet" viewBox="0 0 793 1123"><defs><clipPath id="1"><path id="" clip-rule="evenodd" transform="matrix(1 0 0 1 0 0)" d="M0 842L0 0L0 0L595.22 0L595.22 0L595.22 842L595.22 842L0 842z" /></clipPath></defs><g transform="matrix(1.333333 0 0 1.333333 0 0)"><g clip-path="url(#1)"><path id="1" transform="matrix(1 0 0 -1 0 842)" d="M56.555 285.701L538.446 285.701L538.446 298.109L56.555 298.109z" stroke="none" fill="#9ADAEA" fill-rule="nonzero" /><path id="2" transform="matrix(1 0 0 -1 0 842)" d="M56.555 683.89L283.61 683.89L283.61 696.298L56.555 696.298z" stroke="none" fill="#9ADAEA" fill-rule="nonzero" /><path id="3" transform="matrix(1 0 0 -1 0 842)" d="M56.555 658.047L283.61 658.047L283.61 670.455L56.555 670.455z" stroke="none" fill="#9ADAEA" fill-rule="nonzero" /><path id="4" transform="matrix(1 0 0 -1 0 842)" d="M56.555 630.204L283.61 630.204L283.61 642.613L56.555 642.613z" stroke="none" fill="#9ADAEA" fill-rule="nonzero" /><path id="5" transform="matrix(1 0 0 -1 0 842)" d="M56.555 602.362L283.61 602.362L283.61 614.77L56.555 614.77z" stroke="none" fill="#9ADAEA" fill-rule="nonzero" /><path id="6" transform="matrix(1 0 0 -1 0 842)" d="M56.555 575.519L283.61 575.519L283.61 587.928L56.555 587.928z" stroke="none" fill="#9ADAEA" fill-rule="nonzero" /><path id="7" transform="matrix(1 0 0 -1 0 842)" d="M56.555 547.834L283.61 547.834L283.61 560.243L56.555 560.243z" stroke="none" fill="#9ADAEA" fill-rule="nonzero" /><path id="8" transform="matrix(1 0 0 -1 0 842)" d="M56.555 520.992L283.61 520.992L283.61 533.4L56.555 533.4z" stroke="none" fill="#9ADAEA" fill-rule="nonzero" /><path id="9" transform="matrix(1 0 0 -1 0 842)" d="M56.555 258.458L538.446 258.458L538.446 269.968L56.555 269.968z" stroke="none" fill="#9ADAEA" fill-rule="nonzero" /><path id="10" transform="matrix(1 0 0 -1 0 842)" d="M56.555 231.078L538.446 231.078L538.446 242.588L56.555 242.588z" stroke="none" fill="#9ADAEA" fill-rule="nonzero" /><path id="11" transform="matrix(1 0 0 -1 0 842)" d="M56.555 205.566L538.446 205.566L538.446 217.076L56.555 217.076z" stroke="none" fill="#9ADAEA" fill-rule="nonzero" /><path id="12" transform="matrix(1 0 0 -1 0 842)" d="M56.555 177.995L538.446 177.995L538.446 189.505L56.555 189.505z" stroke="none" fill="#9ADAEA" fill-rule="nonzero" /><path id="13" transform="matrix(1 0 0 -1 0 842)" d="M56.555 151.166L538.446 151.166L538.446 162.676L56.555 162.676z" stroke="none" fill="#9ADAEA" fill-rule="nonzero" /><path id="14" transform="matrix(1 0 0 -1 0 842)" d="M56.555 123.939L538.446 123.939L538.446 135.449L56.555 135.449z" stroke="none" fill="#9ADAEA" fill-rule="nonzero" /><path id="2116" transform="matrix(1 0 0 -1 0 842)" d="M538.446 109.85L56.55499 109.85" stroke="#2A358A" stroke-width="1.5" fill="none" /><path id="2117" transform="matrix(1 0 0 -1 0 842)" d="M538.457 298.006L56.56598 298.006" stroke="#2A358A" stroke-width="0.5" fill="none" /><path id="2118" transform="matrix(1 0 0 -1 0 842)" d="M538.457 360.687L56.56598 360.687" stroke="#2A358A" stroke-width="1.5" fill="none" /><path id="2119" transform="matrix(1 0 0 -1 0 842)" d="M280.809 377.447L56.56696 377.447" stroke="#2A358A" stroke-width="1.5" fill="none" /><path id="2120" transform="matrix(1 0 0 -1 0 842)" d="M538.853 377.095L314.611 377.095" stroke="#2A358A" stroke-width="1.5" fill="none" /><path id="2147" transform="matrix(1 0 0 -1 0 842)" d="M283.611 721.851L56.556 721.851" stroke="#2A358A" stroke-width="1.5" fill="none" /><path id="2148" transform="matrix(1 0 0 -1 0 842)" d="M283.611 507.438L56.556 507.438" stroke="#2A358A" stroke-width="1.5" fill="none" /><path id="2149" transform="matrix(1 0 0 -1 0 842)" d="M154.687 741.711L56.556 741.711" stroke="#2A358A" stroke-width="1.5" fill="none" /><path id="2150" transform="matrix(1 0 0 -1 0 842)" d="M283.611 741.741L185.674 741.741" stroke="#2A358A" stroke-width="1.5" fill="none" /><path id="2151" transform="matrix(1 0 0 -1 0 842)" d="M283.611 520.97L56.556 520.97" stroke="#2A358A" stroke-width="0.5" fill="none" /><path id="2152" transform="matrix(1 0 0 -1 0 842)" d="M283.611 695.9999L56.556 695.9999" stroke="#2A358A" stroke-width="0.5" fill="none" /><path id="2153" transform="matrix(1 0 0 -1 0 842)" d="M183.719 709.8499L283.611 709.8499" stroke="#2A358A" stroke-width="0.5" fill="none" /><path id="2598" transform="matrix(1 0 0 -1 0 842)" d="M538.446 124.03L56.55499 124.03" stroke="#2A358A" stroke-width="0.5" fill="none" /><path id="2599" transform="matrix(1 0 0 -1 0 842)" d="M174.801 124.029L174.801 360.205" stroke="#2A358A" stroke-width="0.5" fill="none" /></g></g></svg>