<svg xmlns="http://www.w3.org/2000/svg" xmlns:xlink="http://www.w3.org/1999/xlink" id="body_3" preserveAspectRatio="xMinYMin meet" viewBox="0 0 793 1123"><defs><clipPath id="1"><path id="" clip-rule="evenodd" transform="matrix(1 0 0 1 0 0)" d="M0 842L0 0L0 0L595.22 0L595.22 0L595.22 842L595.22 842L0 842z" /></clipPath></defs><g transform="matrix(1.333333 0 0 1.333333 0 0)"><g clip-path="url(#1)"><path id="1" transform="matrix(1 0 0 -1 0 842)" d="M56.998 648.959L538.694 648.959L538.694 661.774L56.998 661.774z" stroke="none" fill="#9ADAEA" fill-rule="nonzero" /><path id="2" transform="matrix(1 0 0 -1 0 842)" d="M56.555 621.453L538.251 621.453L538.251 634.268L56.555 634.268z" stroke="none" fill="#9ADAEA" fill-rule="nonzero" /><path id="3" transform="matrix(1 0 0 -1 0 842)" d="M56.555 595.411L538.251 595.411L538.251 608.225L56.555 608.225z" stroke="none" fill="#9ADAEA" fill-rule="nonzero" /><path id="4" transform="matrix(1 0 0 -1 0 842)" d="M56.555 569.709L538.251 569.709L538.251 582.524L56.555 582.524z" stroke="none" fill="#9ADAEA" fill-rule="nonzero" /><path id="5" transform="matrix(1 0 0 -1 0 842)" d="M56.555 543.17L538.251 543.17L538.251 555.984L56.555 555.984z" stroke="none" fill="#9ADAEA" fill-rule="nonzero" /><path id="6" transform="matrix(1 0 0 -1 0 842)" d="M56.75 517.798L538.446 517.798L538.446 530.613L56.75 530.613z" stroke="none" fill="#9ADAEA" fill-rule="nonzero" /><path id="7" transform="matrix(1 0 0 -1 0 842)" d="M56.555 491.651L538.446 491.651L538.446 505.899L56.555 505.899z" stroke="none" fill="#9ADAEA" fill-rule="nonzero" /><path id="3850" transform="matrix(1 0 0 -1 0 842)" d="M538.457 491.851L56.56598 491.851" stroke="#2A358A" stroke-width="1.5" fill="none" /><path id="3851" transform="matrix(1 0 0 -1 0 842)" d="M538.457 662.193L56.56598 662.193" stroke="#2A358A" stroke-width="0.5" fill="none" /><path id="3852" transform="matrix(1 0 0 -1 0 842)" d="M538.457 724.875L56.56598 724.875" stroke="#2A358A" stroke-width="1.5" fill="none" /><path id="3853" transform="matrix(1 0 0 -1 0 842)" d="M280.809 741.959L56.56696 741.959" stroke="#2A358A" stroke-width="1.5" fill="none" /><path id="3854" transform="matrix(1 0 0 -1 0 842)" d="M538.853 742.285L314.611 742.285" stroke="#2A358A" stroke-width="1.5" fill="none" /><path id="3881" transform="matrix(1 0 0 -1 0 842)" d="M172.801 505.04L172.801 725.392" stroke="#2A358A" stroke-width="0.5" fill="none" /></g></g></svg>