<svg xmlns="http://www.w3.org/2000/svg" xmlns:xlink="http://www.w3.org/1999/xlink" id="body_1" preserveAspectRatio="xMinYMin meet" viewBox="0 0 793 1123"><defs><clipPath id="1"><path id="" clip-rule="evenodd" transform="matrix(1 0 0 1 0 0)" d="M0 842L0 0L0 0L595.22 0L595.22 0L595.22 842L595.22 842L0 842z" /></clipPath><clipPath id="2"><path id="" clip-rule="evenodd" transform="matrix(1 0 0 1 0 0)" d="M0 0.02001953L595 0.02001953L595 0.02001953L595 842L595 842L0 842z" /></clipPath></defs><g transform="matrix(1.333333 0 0 1.333333 0 0)"><g clip-path="url(#1)"><g clip-path="url(#2)"></g><path id="2879" transform="matrix(1 0 0 -1 0 842)" d="M56.555 659.6L283.61 659.6" stroke="#221E1F" stroke-width="0.5" fill="none" /><path id="5121" transform="matrix(1 0 0 -1 0 842)" d="M56.555 160.45L538.445 160.45" stroke="#221E1F" stroke-width="0.5" fill="none" /><path id="5122" transform="matrix(1 0 0 -1 0 842)" d="M56.555 625.1689L283.61 625.1689" stroke="#221E1F" stroke-width="0.5" fill="none" /></g></g></svg>