<?xml version="1.0" encoding="utf-8"?>
<!-- Generator: Adobe Illustrator 16.0.0, SVG Export Plug-In . SVG Version: 6.00 Build 0)  -->
<!DOCTYPE svg PUBLIC "-//W3C//DTD SVG 1.1//EN" "http://www.w3.org/Graphics/SVG/1.1/DTD/svg11.dtd">
<svg version="1.1" id="Layer_1" xmlns="http://www.w3.org/2000/svg" xmlns:xlink="http://www.w3.org/1999/xlink" x="0px" y="0px"
	 width="50px" height="50px" viewBox="0 0 50 50" enable-background="new 0 0 50 50" xml:space="preserve">
<path d="M50,47.688L36.416,34.104c3.085-3.613,4.958-8.293,4.958-13.417C41.374,9.262,32.111,0,20.687,0C9.262,0,0,9.262,0,20.687
	c0,11.424,9.262,20.687,20.687,20.687c5.123,0,9.802-1.873,13.416-4.958L47.687,50L50,47.688z M2.247,20.687
	c0-10.184,8.256-18.44,18.44-18.44c10.183,0,18.44,8.256,18.44,18.44c0,10.183-8.257,18.44-18.44,18.44
	C10.503,39.127,2.247,30.87,2.247,20.687z"/>
</svg>
