<?xml version="1.0" encoding="utf-8"?>
<!-- Generator: Adobe Illustrator 16.0.0, SVG Export Plug-In . SVG Version: 6.00 Build 0)  -->
<!DOCTYPE svg PUBLIC "-//W3C//DTD SVG 1.1//EN" "http://www.w3.org/Graphics/SVG/1.1/DTD/svg11.dtd">
<svg version="1.1" id="Layer_1" xmlns="http://www.w3.org/2000/svg" xmlns:xlink="http://www.w3.org/1999/xlink" x="0px" y="0px"
	 width="50px" height="50px" viewBox="0 0 50 50" enable-background="new 0 0 50 50" xml:space="preserve">
<path d="M50,25C50,11.194,38.805,0.004,25.004,0.004C11.194,0.004,0,11.194,0,25c0,7.006,2.896,13.333,7.541,17.872l0,0
	c0.008,0.004,0.008,0.008,0.015,0.012c0.703,0.684,1.453,1.315,2.233,1.913c0.086,0.074,0.187,0.141,0.281,0.215
	c0.781,0.581,1.593,1.124,2.436,1.615c0.008,0,0.008,0.004,0.008,0.004l0,0c3.677,2.128,7.931,3.365,12.49,3.365
	c5.604,0,10.766-1.87,14.934-4.988c0.094-0.07,0.188-0.137,0.281-0.207c0.765-0.594,1.507-1.222,2.209-1.901
	c0.008-0.008,0.016-0.016,0.031-0.027l0,0C47.104,38.333,50,32.006,50,25z M2.709,25c0-12.291,10-22.291,22.295-22.291
	c12.287,0,22.287,10,22.287,22.291c0,5.289-1.866,10.152-4.957,13.977c-1.093-4.441-5.371-8.082-11.077-9.647
	c3.123-2.046,5.19-5.563,5.19-9.575c0-6.324-5.128-11.448-11.443-11.448c-6.323,0-11.452,5.125-11.452,11.448
	c0,4.012,2.069,7.529,5.191,9.575c-5.707,1.565-9.984,5.206-11.077,9.647C4.575,35.152,2.709,30.289,2.709,25z M16.261,19.754
	c0-4.821,3.918-8.743,8.743-8.743c4.816,0,8.735,3.922,8.735,8.743c0,4.82-3.919,8.743-8.735,8.743
	C20.179,28.497,16.261,24.574,16.261,19.754z M10.109,41.538c-0.008-0.113-0.023-0.223-0.023-0.34
	c0-5.391,6.729-9.945,14.738-10.012c0.063,0,0.117,0.016,0.18,0.016c0.055,0,0.117-0.016,0.172-0.016
	c8.009,0.066,14.738,4.621,14.738,10.012c0,0.117-0.016,0.227-0.023,0.34c-3.949,3.56-9.164,5.749-14.887,5.749
	C19.274,47.287,14.06,45.098,10.109,41.538z"/>
</svg>
