<svg xmlns="http://www.w3.org/2000/svg" xmlns:xlink="http://www.w3.org/1999/xlink" id="body_1" preserveAspectRatio="xMinYMin meet" viewBox="0 0 793 1123"><defs><clipPath id="1"><path id="" clip-rule="evenodd" transform="matrix(1 0 0 1 0 0)" d="M0 842L0 0L0 0L595.22 0L595.22 0L595.22 842L595.22 842L0 842z" /></clipPath><clipPath id="2"><path id="" clip-rule="evenodd" transform="matrix(1 0 0 1 0 0)" d="M0 0.02001953L595.2 0.02001953L595.2 0.02001953L595.2 842L595.2 842L0 842z" /></clipPath><clipPath id="3"><path id="" clip-rule="evenodd" transform="matrix(1 0 0 1 0 0)" d="M310.82 461.855L538.822 461.855L538.822 461.855L538.822 196.3521L538.822 196.3521L310.82 196.3521z" /></clipPath><clipPath id="4"><path id="" clip-rule="evenodd" transform="matrix(1 0 0 1 0 0)" d="M311.184 196.688L538.345 196.688L538.345 196.688L538.345 461.498L538.345 461.498L311.184 461.498z" /></clipPath><clipPath id="5"><path id="" clip-rule="evenodd" transform="matrix(1 0 0 1 0 0)" d="M0 0.02001953L595.2 0.02001953L595.2 0.02001953L595.2 842L595.2 842L0 842z" /></clipPath></defs><g transform="matrix(1.333333 0 0 1.333333 0 0)"><g clip-path="url(#1)"><g clip-path="url(#2)"></g><g clip-path="url(#3)"><g clip-path="url(#4)"><g clip-path="url(#5)"><g transform="matrix(0.4801516 0 0 0.4793718 310.794 196.334)"><g transform="matrix(1 0 0 1 0 0)"><image x="0" y="0" xlink:href="img_01.png" width="475" height="554" /></g></g></g></g></g><path id="3565" transform="matrix(1 0 0 -1 0 842)" d="M311.184 645.312L538.345 645.312L538.345 645.312L538.345 380.502L538.345 380.502L311.184 380.502z" stroke="#6D6E70" stroke-width="0.2" fill="none" /></g></g></svg>