<svg xmlns="http://www.w3.org/2000/svg" xmlns:xlink="http://www.w3.org/1999/xlink" id="body_3" preserveAspectRatio="xMinYMin meet" viewBox="0 0 816 1056"><defs><clipPath id="1"><path id="" clip-rule="evenodd" transform="matrix(1 0 0 1 0 0)" d="M0 792L0 0L0 0L612 0L612 0L612 792L612 792L0 792z" /></clipPath><clipPath id="2"><path id="" clip-rule="evenodd" transform="matrix(1 0 0 1 0 0)" d="M600.547 3.270996L11.453 3.270996L11.453 3.270996L11.453 788.729L11.453 788.729L600.547 788.729z" /></clipPath><clipPath id="3"><path id="" clip-rule="evenodd" transform="matrix(1 0 0 1 0 0)" d="M4.5819 774.192L602.6379 774.192L602.6379 774.192L602.6379 0.223999L602.6379 0.223999L4.5819 0.223999z" /></clipPath><clipPath id="4"><path id="" clip-rule="evenodd" transform="matrix(1 0 0 1 0 0)" d="M10.429 -23.86603L1201.429 -23.86603L1201.429 -23.86603L1201.429 818.174L1201.429 818.174L10.429 818.174z" /></clipPath><clipPath id="5"><path id="" clip-rule="evenodd" transform="matrix(1 0 0 1 0 0)" d="M602.102 793.924L4.984009 793.924L4.984009 793.924L4.984009 0.223999L4.984009 0.223999L602.102 0.223999z" /></clipPath><clipPath id="6"><path id="" clip-rule="evenodd" transform="matrix(1 0 0 1 0 0)" d="M600.547 3.270996L11.453 3.270996L11.453 3.270996L11.453 788.729L11.453 788.729L600.547 788.729z" /></clipPath></defs><g transform="matrix(1.333333 0 0 1.333333 0 0)"><g clip-path="url(#1)"><g clip-path="url(#2)"><path id="1" transform="matrix(1 0 0 -1 0 792)" d="M11.453 3.271L600.547 3.271L600.547 788.729L11.453 788.729z" stroke="none" fill="#FFFFFF" fill-rule="nonzero" /></g><g clip-path="url(#3)"><g clip-path="url(#4)"><g clip-path="url(#5)"><g clip-path="url(#6)"><g transform="matrix(0.4800096 0 0 0.4798587 4.554 0.2039795)"><g transform="matrix(1 0 0 1 0 0)"><image x="0" y="0" xlink:href="img_04.png" width="1246" height="1613" /></g></g></g></g></g></g></g></g></svg>