<svg xmlns="http://www.w3.org/2000/svg" xmlns:xlink="http://www.w3.org/1999/xlink" id="body_1" preserveAspectRatio="xMinYMin meet" viewBox="0 0 793 1123"><defs><clipPath id="1"><path id="" clip-rule="evenodd" transform="matrix(1 0 0 1 0 0)" d="M0 842L0 0L0 0L595.22 0L595.22 0L595.22 842L595.22 842L0 842z" /></clipPath><clipPath id="2"><path id="" clip-rule="evenodd" transform="matrix(1 0 0 1 0 0)" d="M0 0.02001953L595 0.02001953L595 0.02001953L595 842L595 842L0 842z" /></clipPath><clipPath id="3"><path id="" clip-rule="evenodd" transform="matrix(1 0 0 1 0 0)" d="M0 0.02001953L595 0.02001953L595 0.02001953L595 842L595 842L0 842z" /></clipPath></defs><g transform="matrix(1.333333 0 0 1.333333 0 0)"><g clip-path="url(#1)"><g clip-path="url(#2)"></g><path id="3906" transform="matrix(1 0 0 -1 0 842)" d="M56.555 659.85L283.61 659.85" stroke="#262223" stroke-width="0.5" fill="none" /><path id="4114" transform="matrix(1 0 0 -1 0 842)" d="M56.555 613.85L283.61 613.85" stroke="#262223" stroke-width="0.5" fill="none" /><g clip-path="url(#3)"></g><path id="4556" transform="matrix(1 0 0 -1 0 842)" d="M56.555 171.395L538.445 171.395" stroke="#262223" stroke-width="0.5" fill="none" /></g></g></svg>