<svg xmlns="http://www.w3.org/2000/svg" xmlns:xlink="http://www.w3.org/1999/xlink" id="body_1" preserveAspectRatio="xMinYMin meet" viewBox="0 0 793 1123"><defs><clipPath id="1"><path id="" clip-rule="evenodd" transform="matrix(1 0 0 1 0 0)" d="M0 842L0 0L0 0L595.22 0L595.22 0L595.22 842L595.22 842L0 842z" /></clipPath><clipPath id="2"><path id="" clip-rule="evenodd" transform="matrix(1 0 0 1 0 0)" d="M0 0.02001953L595 0.02001953L595 0.02001953L595 842L595 842L0 842z" /></clipPath><clipPath id="3"><path id="" clip-rule="evenodd" transform="matrix(1 0 0 1 0 0)" d="M311.39 696.15L538.817 696.15L538.817 696.15L538.817 468.15L538.817 468.15L311.39 468.15z" /></clipPath><clipPath id="4"><path id="" clip-rule="evenodd" transform="matrix(1 0 0 1 0 0)" d="M311.39 468.15L538.445 468.15L538.445 468.15L538.445 696.15L538.445 696.15L311.39 696.15z" /></clipPath><clipPath id="5"><path id="" clip-rule="evenodd" transform="matrix(1 0 0 1 0 0)" d="M0 0.02001953L595.2 0.02001953L595.2 0.02001953L595.2 842L595.2 842L0 842z" /></clipPath></defs><g transform="matrix(1.333333 0 0 1.333333 0 0)"><g clip-path="url(#1)"><g clip-path="url(#2)"></g><path id="1688" transform="matrix(1 0 0 -1 0 842)" d="M56.555 661.85L283.61 661.85" stroke="#221E1F" stroke-width="0.5" fill="none" /><path id="1689" transform="matrix(1 0 0 -1 0 842)" d="M311.39 661.85L538.4449 661.85" stroke="#221E1F" stroke-width="0.5" fill="none" /><path id="3481" transform="matrix(1 0 0 -1 0 842)" d="M56.555 148.45L283.61 148.45" stroke="#221E1F" stroke-width="0.5" fill="none" /><path id="3482" transform="matrix(1 0 0 -1 0 842)" d="M56.555 636.095L283.327 636.095" stroke="#221E1F" stroke-width="0.5" fill="none" /><path id="3483" transform="matrix(1 0 0 -1 0 842)" d="M311.39 635.8499L538.161 635.8499" stroke="#221E1F" stroke-width="0.5" fill="none" /><g clip-path="url(#3)"><g clip-path="url(#4)"><g clip-path="url(#5)"><g transform="matrix(0.4800253 0 0 0.4801516 311.334 468.134)"><g transform="matrix(1 0 0 1 0 0)"><image x="0" y="0" xlink:href="img_01.png" width="474" height="475" /></g></g></g></g></g></g></g></svg>