<svg xmlns="http://www.w3.org/2000/svg" xmlns:xlink="http://www.w3.org/1999/xlink" id="body_2" preserveAspectRatio="xMinYMin meet" viewBox="0 0 793 1123"><defs><clipPath id="1"><path id="" clip-rule="evenodd" transform="matrix(1 0 0 1 0 0)" d="M0 842L0 0L0 0L595.22 0L595.22 0L595.22 842L595.22 842L0 842z" /></clipPath><clipPath id="2"><path id="" clip-rule="evenodd" transform="matrix(1 0 0 1 0 0)" d="M56.779 283.535L284.018 283.535L284.018 283.535L284.018 96.29498L284.018 96.29498L56.779 96.29498z" /></clipPath><clipPath id="3"><path id="" clip-rule="evenodd" transform="matrix(1 0 0 1 0 0)" d="M60.261 315.681L70.82 315.681L70.82 315.681L70.82 309.028L70.82 309.028L60.261 309.028z" /></clipPath><clipPath id="4"><path id="" clip-rule="evenodd" transform="matrix(1 0 0 1 0 0)" d="M60.689 309.289L70.157 309.289L70.157 309.289L70.157 315.428L70.157 315.428L60.689 315.428z" /></clipPath><clipPath id="5"><path id="" clip-rule="evenodd" transform="matrix(1 0 0 1 0 0)" d="M0 0.02001953L595.2 0.02001953L595.2 0.02001953L595.2 842L595.2 842L0 842z" /></clipPath><clipPath id="6"><path id="" clip-rule="evenodd" transform="matrix(1 0 0 1 0 0)" d="M223.309 318.415L235.307 318.415L235.307 318.415L235.307 305.585L235.307 305.585L223.309 305.585z" /></clipPath><clipPath id="7"><path id="" clip-rule="evenodd" transform="matrix(1 0 0 1 0 0)" d="M223.626 306.056L234.533 306.056L234.533 306.056L234.533 317.953L234.533 317.953L223.626 317.953z" /></clipPath><clipPath id="8"><path id="" clip-rule="evenodd" transform="matrix(1 0 0 1 0 0)" d="M0 0.02001953L595.2 0.02001953L595.2 0.02001953L595.2 842L595.2 842L0 842z" /></clipPath><clipPath id="9"><path id="" clip-rule="evenodd" transform="matrix(1 0 0 1 0 0)" d="M104.676 327.415L114.275 327.415L114.275 327.415L114.275 318.1489L114.275 318.1489L104.676 318.1489z" /></clipPath><clipPath id="10"><path id="" clip-rule="evenodd" transform="matrix(1 0 0 1 0 0)" d="M104.936 318.495L113.819 318.495L113.819 318.495L113.819 327.033L113.819 327.033L104.936 327.033z" /></clipPath><clipPath id="11"><path id="" clip-rule="evenodd" transform="matrix(1 0 0 1 0 0)" d="M0 0.02001953L595.2 0.02001953L595.2 0.02001953L595.2 842L595.2 842L0 842z" /></clipPath></defs><g transform="matrix(1.333333 0 0 1.333333 0 0)"><g clip-path="url(#1)"><g clip-path="url(#2)"><g transform="matrix(0.479519 0 0 0.47911 56.754 96.25403)"><g transform="matrix(1 0 0 1 0 0)"><image x="0" y="0" xlink:href="img_03.png" width="474" height="391" /></g></g></g><g clip-path="url(#3)"><g clip-path="url(#4)"><g clip-path="url(#5)"><g transform="matrix(0.4832727 0 0 0.4808572 60.234 309.014)"><g transform="matrix(1 0 0 1 0 0)"><image x="0" y="0" xlink:href="img_04.png" width="22" height="14" /></g></g></g></g></g><g clip-path="url(#6)"><g clip-path="url(#7)"><g clip-path="url(#8)"><g><g transform="matrix(8.075 0 0 8.5 2032.087 2920.55)"><path id="4189" transform="matrix(1 0 0 1 0 0)" d="" stroke="none" fill="#221E1F" fill-rule="evenodd" /></g><g transform="matrix(0.48288 0 0 0.4782222 223.254 305.534)"><g transform="matrix(1 0 0 1 0 0)"><image x="0" y="0" xlink:href="img_05.png" width="25" height="27" /></g></g></g></g></g></g><g clip-path="url(#9)"><g clip-path="url(#10)"><g clip-path="url(#11)"><g><g transform="matrix(8.075 0 0 8.5 944.4538 3017.45)"><path id="4214" transform="matrix(1 0 0 1 0 0)" d="" stroke="none" fill="#221E1F" fill-rule="evenodd" /></g><g transform="matrix(0.4836 0 0 0.4656 104.634 318.134)"><g transform="matrix(1 0 0 1 0 0)"><image x="0" y="0" xlink:href="img_06.png" width="20" height="20" /></g></g></g></g></g></g></g></g></svg>