<svg xmlns="http://www.w3.org/2000/svg" xmlns:xlink="http://www.w3.org/1999/xlink" id="body_2" preserveAspectRatio="xMinYMin meet" viewBox="0 0 793 1057"><defs><clipPath id="1"><path id="" clip-rule="evenodd" transform="matrix(1 0 0 1 0 0)" d="M0 793L0 -0.7009888L0 -0.7009888L595.276 -0.7009888L595.276 -0.7009888L595.276 793L595.276 793L0 793z" /></clipPath><clipPath id="2"><path id="" clip-rule="evenodd" transform="matrix(1 0 0 1 0 0)" d="M102.047 280.155L538.583 280.155L538.583 280.155L538.583 77.40906L538.583 77.40906L102.047 77.40906z" /></clipPath><clipPath id="3"><path id="" clip-rule="evenodd" transform="matrix(1 0 0 1 0 0)" d="M0 793L595.276 793L595.276 793L595.276 -0.7009888L595.276 -0.7009888L0 -0.7009888z" /></clipPath><clipPath id="4"><path id="" clip-rule="evenodd" transform="matrix(1 0 0 1 0 0)" d="M-0.001289368 792.9996L595.2771 792.9996L595.2771 792.9996L595.2771 -0.7003174L595.2771 -0.7003174L-0.001289368 -0.7003174z" /></clipPath><clipPath id="5"><path id="" clip-rule="evenodd" transform="matrix(1 0 0 1 0 0)" d="M6.839134 291.9959L554.0294 291.9959L554.0294 291.9959L554.0294 59.78613L554.0294 59.78613L6.839134 59.78613z" /></clipPath><clipPath id="6"><path id="" clip-rule="evenodd" transform="matrix(1 0 0 1 0 0)" d="M107.0227 279.9728L516.4005 279.9728L516.4005 279.9728L516.4005 82.91992L516.4005 82.91992L107.0227 82.91992z" /></clipPath></defs><g transform="matrix(1.333333 0 0 1.333333 0 0)"><g clip-path="url(#1)"><path id="3243" transform="matrix(1 0 0 -1 0 793)" d="M56.893 496.263L538.383 496.263L538.383 715.77L56.893 715.77z" stroke="none" fill="#FFFFFF" fill-rule="nonzero" /><path id="3244" transform="matrix(1 0 0 -1 0 793)" d="M56.793 496.163L538.483 496.163L538.483 496.163L538.483 715.87L538.483 715.87L56.793 715.87z" stroke="#666666" stroke-width="0.2" fill="none" /><path id="3245" transform="matrix(1 0 0 -1 0 793)" d="M76.423 501.671L96.378 501.671L96.378 689.834L76.423 689.834z" stroke="none" fill="#FFFFFF" fill-rule="nonzero" /><path id="3251" transform="matrix(1 0 0 -1 0 793)" d="M158.127 499.54L525.139 499.54L525.139 511.097L158.127 511.097z" stroke="none" fill="#FFFFFF" fill-rule="nonzero" /><g clip-path="url(#2)"><g clip-path="url(#3)"><g clip-path="url(#4)"><g clip-path="url(#5)"><g clip-path="url(#6)"><g transform="matrix(0.595324 0 0 0.4491678 106.8918 82.82874)"><g transform="matrix(1 0 0 1 0 0)"><image x="0" y="0" xlink:href="img_02.png" width="688" height="439" /></g></g></g></g></g></g></g></g></g></svg>