<svg xmlns="http://www.w3.org/2000/svg" xmlns:xlink="http://www.w3.org/1999/xlink" id="body_1" preserveAspectRatio="xMinYMin meet" viewBox="0 0 793 1057"><defs><clipPath id="1"><path id="" clip-rule="evenodd" transform="matrix(1 0 0 1 0 0)" d="M0 793L0 -0.7009888L0 -0.7009888L595.276 -0.7009888L595.276 -0.7009888L595.276 793L595.276 793L0 793z" /></clipPath></defs><g transform="matrix(1.333333 0 0 1.333333 0 0)"><g clip-path="url(#1)"><path id="1334" transform="matrix(1 0 0 -1 0 793)" d="M56.693 611.105L283.465 611.105" stroke="#000000" stroke-width="0.5" fill="none" /><path id="1335" transform="matrix(1 0 0 -1 0 793)" d="M56.693 637.701L283.748 637.701" stroke="#000000" stroke-width="0.5" fill="none" /><path id="1336" transform="matrix(1 0 0 -1 0 793)" d="M311.528 637.701L538.583 637.701" stroke="#000000" stroke-width="0.5" fill="none" /><path id="3980" transform="matrix(1 0 0 -1 0 793)" d="M311.528 611.105L538.299 611.105" stroke="#000000" stroke-width="0.5" fill="none" /><path id="4392" transform="matrix(1 0 0 -1 0 793)" d="M56.693 194.025L283.465 194.025" stroke="#000000" stroke-width="0.5" fill="none" /></g></g></svg>